<svg width="363" height="43" viewBox="0 0 363 43" fill="none" xmlns="http://www.w3.org/2000/svg">
<g clip-path="url(#clip0_39_5)">
<path d="M21.6005 4C18.0467 4 14.6385 5.41173 12.1256 7.92462L3.92462 16.1256C1.41173 18.6385 0 22.0467 0 25.6005C0 33.0009 5.99916 39 13.3995 39C16.9533 39 20.3615 37.5882 22.8744 35.0753L28.5471 29.4027C28.5471 29.4025 28.5472 29.4028 28.5471 29.4027L45.0753 12.8744C46.2755 11.6742 47.9032 11 49.6005 11C52.442 11 54.8511 12.852 55.6863 15.4147L60.9026 10.1985C58.5229 6.4714 54.3503 4 49.6005 4C46.0467 4 42.6385 5.41173 40.1256 7.92462L17.9247 30.1256C16.7245 31.3258 15.0968 32 13.3995 32C9.86515 32 7 29.1349 7 25.6005C7 23.9032 7.67423 22.2755 8.87437 21.0753L17.0753 12.8744C18.2755 11.6742 19.9032 11 21.6005 11C24.4421 11 26.8511 12.8521 27.6863 15.4149L32.9027 10.1986C30.523 6.47147 26.3504 4 21.6005 4Z" fill="#394149"/>
<path d="M45.9247 30.1256C44.7245 31.3258 43.0968 32 41.3995 32C38.5583 32 36.1495 30.1485 35.3141 27.5861L30.0979 32.8023C32.4777 36.5289 36.65 39 41.3995 39C44.9533 39 48.3615 37.5882 50.8744 35.0753L73.0753 12.8744C74.2755 11.6742 75.9032 11 77.6005 11C81.1349 11 84 13.8651 84 17.3995C84 19.0968 83.3258 20.7245 82.1256 21.9247L73.9247 30.1256C72.7245 31.3258 71.0968 32 69.3995 32C66.5581 32 64.1492 30.1481 63.3138 27.5856L58.0977 32.8018C60.4773 36.5288 64.6498 39 69.3995 39C72.9533 39 76.3615 37.5882 78.8744 35.0753L87.0753 26.8744C89.5882 24.3615 91 20.9533 91 17.3995C91 9.99916 85.0009 4 77.6005 4C74.0467 4 70.6385 5.41173 68.1256 7.92462L45.9247 30.1256Z" fill="#394149"/>
</g>
<path d="M113.34 8.5C120.095 8.5 125.24 13.82 125.24 20.75C125.24 27.68 120.095 33 113.34 33H103.54V8.5H113.34ZM113.34 27.61C117.19 27.61 119.85 24.95 119.85 20.75C119.85 16.55 117.19 13.89 113.34 13.89H109.14V27.61H113.34ZM130.138 13.96C128.423 13.96 126.988 12.525 126.988 10.81C126.988 9.095 128.423 7.66 130.138 7.66C131.853 7.66 133.288 9.095 133.288 10.81C133.288 12.525 131.853 13.96 130.138 13.96ZM127.513 33V15.5H132.763V33H127.513ZM148.61 15.5H153.86V33H148.61V31.355C147.455 32.685 145.74 33.49 143.395 33.49C138.81 33.49 135.03 29.465 135.03 24.25C135.03 19.035 138.81 15.01 143.395 15.01C145.74 15.01 147.455 15.815 148.61 17.145V15.5ZM144.445 28.52C146.86 28.52 148.61 26.875 148.61 24.25C148.61 21.625 146.86 19.98 144.445 19.98C142.03 19.98 140.28 21.625 140.28 24.25C140.28 26.875 142.03 28.52 144.445 28.52ZM167.267 15.01C170.802 15.01 173.812 17.53 173.812 22.255V33H168.562V23.025C168.562 20.855 167.197 19.84 165.517 19.84C163.592 19.84 162.262 20.96 162.262 23.445V33H157.012V15.5H162.262V17.145C163.207 15.85 164.957 15.01 167.267 15.01ZM186.972 15.01C190.507 15.01 193.517 17.53 193.517 22.255V33H188.267V23.025C188.267 20.855 186.902 19.84 185.222 19.84C183.297 19.84 181.967 20.96 181.967 23.445V33H176.717V15.5H181.967V17.145C182.912 15.85 184.662 15.01 186.972 15.01ZM201.112 26.35C201.777 28.17 203.387 28.8 205.312 28.8C206.747 28.8 207.972 28.24 208.672 27.47L212.872 29.885C211.157 32.265 208.567 33.49 205.242 33.49C199.257 33.49 195.547 29.465 195.547 24.25C195.547 19.035 199.327 15.01 204.857 15.01C209.967 15.01 213.747 18.965 213.747 24.25C213.747 24.985 213.677 25.685 213.537 26.35H201.112ZM201.007 22.43H208.532C207.972 20.4 206.397 19.665 204.822 19.665C202.827 19.665 201.497 20.645 201.007 22.43ZM232.685 33.455C230.398 33.455 228.438 32.9183 226.805 31.845C225.195 30.7717 224.063 29.3017 223.41 27.435L226.21 25.825C227.167 28.7883 229.348 30.27 232.755 30.27C234.435 30.27 235.718 29.9317 236.605 29.255C237.492 28.555 237.935 27.6333 237.935 26.49C237.935 25.3233 237.492 24.4483 236.605 23.865C235.718 23.2817 234.237 22.6633 232.16 22.01C231.133 21.6833 230.352 21.4267 229.815 21.24C229.278 21.03 228.602 20.7267 227.785 20.33C226.992 19.91 226.397 19.49 226 19.07C225.603 18.6267 225.242 18.055 224.915 17.355C224.612 16.655 224.46 15.8617 224.46 14.975C224.46 12.8517 225.207 11.1717 226.7 9.935C228.193 8.675 230.013 8.045 232.16 8.045C234.097 8.045 235.777 8.535 237.2 9.515C238.647 10.495 239.732 11.79 240.455 13.4L237.725 14.975C236.675 12.455 234.82 11.195 232.16 11.195C230.83 11.195 229.757 11.5217 228.94 12.175C228.123 12.8283 227.715 13.715 227.715 14.835C227.715 15.9083 228.1 16.725 228.87 17.285C229.64 17.845 230.97 18.4283 232.86 19.035C233.537 19.245 234.015 19.3967 234.295 19.49C234.575 19.5833 235.007 19.7467 235.59 19.98C236.197 20.2133 236.64 20.4 236.92 20.54C237.2 20.68 237.573 20.8783 238.04 21.135C238.53 21.3917 238.892 21.6367 239.125 21.87C239.358 22.1033 239.627 22.395 239.93 22.745C240.257 23.0717 240.49 23.41 240.63 23.76C240.77 24.11 240.887 24.5183 240.98 24.985C241.097 25.4283 241.155 25.9067 241.155 26.42C241.155 28.5667 240.373 30.2817 238.81 31.565C237.247 32.825 235.205 33.455 232.685 33.455ZM259.101 8.5V11.58H251.856V33H248.636V11.58H241.426V8.5H259.101ZM277.127 31.11C275.424 32.6733 273.219 33.455 270.512 33.455C267.805 33.455 265.589 32.6733 263.862 31.11C262.159 29.5233 261.307 27.4117 261.307 24.775V8.5H264.562V24.635C264.562 26.3617 265.075 27.7383 266.102 28.765C267.129 29.7683 268.599 30.27 270.512 30.27C272.425 30.27 273.895 29.7683 274.922 28.765C275.949 27.7383 276.462 26.3617 276.462 24.635V8.5H279.682V24.775C279.682 27.4117 278.83 29.5233 277.127 31.11ZM293.514 8.5C296.851 8.5 299.616 9.69 301.809 12.07C304.026 14.4267 305.134 17.32 305.134 20.75C305.134 24.18 304.026 27.085 301.809 29.465C299.616 31.8217 296.851 33 293.514 33H283.959V8.5H293.514ZM293.514 29.92C296.011 29.92 298.053 29.045 299.639 27.295C301.226 25.545 302.019 23.3633 302.019 20.75C302.019 18.1367 301.226 15.955 299.639 14.205C298.053 12.455 296.011 11.58 293.514 11.58H287.214V29.92H293.514ZM308.381 8.5H311.636V33H308.381V8.5ZM336.562 29.745C334.112 32.2183 331.114 33.455 327.567 33.455C324.02 33.455 321.022 32.2183 318.572 29.745C316.122 27.2717 314.897 24.2733 314.897 20.75C314.897 17.2033 316.122 14.205 318.572 11.755C321.022 9.28166 324.02 8.045 327.567 8.045C331.114 8.045 334.112 9.28166 336.562 11.755C339.035 14.205 340.272 17.2033 340.272 20.75C340.272 24.2733 339.035 27.2717 336.562 29.745ZM320.812 27.54C322.632 29.36 324.884 30.27 327.567 30.27C330.25 30.27 332.49 29.36 334.287 27.54C336.107 25.6967 337.017 23.4333 337.017 20.75C337.017 18.0433 336.107 15.78 334.287 13.96C332.49 12.1167 330.25 11.195 327.567 11.195C324.884 11.195 322.632 12.1167 320.812 13.96C319.015 15.78 318.117 18.0433 318.117 20.75C318.117 23.4333 319.015 25.6967 320.812 27.54Z" fill="black"/>
<path d="M352.508 5.225C357.508 5.225 361.558 9.25 361.558 14.25C361.558 19.25 357.508 23.275 352.508 23.275C347.508 23.275 343.458 19.25 343.458 14.25C343.458 9.25 347.508 5.225 352.508 5.225ZM352.508 22.675C357.133 22.675 360.883 18.925 360.883 14.25C360.883 9.575 357.133 5.825 352.508 5.825C347.883 5.825 344.108 9.575 344.108 14.25C344.108 18.925 347.883 22.675 352.508 22.675ZM356.008 12.525C356.008 13.8 355.408 14.775 354.133 15.175L356.233 18.875H354.908L352.958 15.4H352.608H351.033V18.875H349.833V9.625H352.608C354.933 9.625 356.008 11.05 356.008 12.525ZM351.033 14.25H352.658C354.133 14.25 354.808 13.575 354.808 12.525C354.808 11.5 354.083 10.775 352.658 10.775H351.033V14.25Z" fill="black"/>
<defs>
<clipPath id="clip0_39_5">
<rect width="91" height="35" fill="white" transform="translate(0 4)"/>
</clipPath>
</defs>
</svg>
